<svg xmlns="http://www.w3.org/2000/svg" style="width:100%;height:100%;overflow:visible">
  <defs>
    <clipPath id="a">
      <path d="M0 0h341v500H0z"/>
    </clipPath>
    <clipPath id="b">
      <path d="M0 0h260v396H0z"/>
    </clipPath>
    <clipPath id="c">
      <path d="M0 0h260v396H0z"/>
    </clipPath>
    <clipPath id="d">
      <path d="M0 0h260v396H0z"/>
    </clipPath>
    <linearGradient id="f" x1="1%" x2="99%" y1="59%" y2="41%">
      <stop stop-color="#474758" offset="0"/>
      <stop stop-color="#474758" offset=".75"/>
      <stop stop-color="#3cabff" offset=".755"/>
    </linearGradient>
    <filter id="e" filterUnits="objectBoundingBox" width="120%" height="120%" x="-10%" y="-10%">
      <feColorMatrix type="saturate" values="0"/>
    </filter>
  </defs>
  <path fill="none" d="M0 0h341v500H0z"/>
  <g clip-path="url(&quot;#a&quot;)" aria-label="Chart">
    <g style="touch-action:none;user-select:none;-webkit-user-drag:none">
      <path fill="none" d="M66 47h260v396H66z"/>
      <path d="M65.5 442.5h260m-260-66h260m-260-66h260m-260-66h260m-260-66h260m-260-66h260m-260-66h260m-260 0v396m129-396v396" stroke="#000" stroke-opacity=".15" fill="none"/>
      <g fill-opacity=".3" stroke="#67b7dc" aria-label="Series">
        <g clip-path="url(&quot;#b&quot;)" transform="translate(66 47)">
          <g fill="#67b7dc" style="pointer-events:none">
            <path d="M1.093 151.8c.437 0 1.311-13.2 2.186-13.2.874 0 1.31 13.2 2.185 13.2H7.65c.874 0 1.311 26.4 2.185 26.4h2.186c.874 0 1.311 13.2 2.186 13.2.874 0 1.311-19.8 2.185-19.8s1.312-13.2 2.186-13.2 1.311 19.8 2.186 19.8c.874 0 1.31-39.6 2.185-39.6.874 0 1.312 33 2.186 33h2.185c.875 0 1.312-13.2 2.186-13.2s1.311 6.6 2.186 6.6h2.185c.875 0 1.312-6.6 2.186-6.6s1.311-33 2.186-33c.874 0 1.311-6.6 2.185-6.6s1.312 6.6 2.186 6.6 1.311-6.6 2.186-6.6c.874 0 1.31-6.6 2.185-6.6.874 0 1.312 26.4 2.186 26.4s1.311-6.6 2.185-6.6 1.312 26.4 2.186 26.4h2.186c.874 0 1.311-26.4 2.185-26.4s1.312-6.6 2.186-6.6 1.311 33 2.186 33c.874 0 1.311 19.8 2.185 19.8s1.312-19.8 2.186-19.8h2.186c.874 0 1.311 13.2 2.185 13.2s1.312 6.6 2.186 6.6 1.311 13.2 2.186 13.2c.874 0 1.31-6.6 2.185-6.6h2.186c.874 0 1.311 6.6 2.186 6.6.874 0 1.31 13.2 2.185 13.2.874 0 1.311 26.4 2.186 26.4.874 0 1.311-19.8 2.185-19.8s1.312 39.6 2.186 39.6h2.186c.874 0 1.311 13.2 2.185 13.2s1.312 13.2 2.186 13.2 1.311-33 2.186-33c.874 0 1.31 26.4 2.185 26.4.874 0 1.312 26.4 2.186 26.4s1.311-19.8 2.186-19.8c.874 0 1.31 33 2.185 33 .874 0 1.312-26.4 2.186-26.4s1.311-6.6 2.185-6.6 1.312 6.6 2.186 6.6 1.311-33 2.186-33c.874 0 1.311-6.6 2.185-6.6s1.312 13.2 2.186 13.2h2.186c.874 0 1.311 13.2 2.185 13.2h2.186c.874 0 1.311-26.4 2.186-26.4.874 0 1.31-6.6 2.185-6.6s1.311 26.4 2.186 26.4c.874 0 1.311-19.8 2.185-19.8s1.312 13.2 2.186 13.2 1.311-6.6 2.186-6.6c.874 0 1.311 19.8 2.185 19.8s1.312-19.8 2.186-19.8 1.311 33 2.186 33c.874 0 1.32-6.6 2.185-6.6S151 264 151.856 264s1.275 6.6 2.14 6.6 1.312-26.4 2.186-26.4 1.312 13.2 2.186 13.2 1.311-39.6 2.185-39.6 1.312-13.2 2.186-13.2 1.311 6.6 2.186 6.6c.874 0 1.311-39.6 2.185-39.6s1.312 13.2 2.186 13.2 1.311-6.6 2.186-6.6h4.371c.874 0 1.311-19.8 2.185-19.8s1.312-6.6 2.186-6.6c.875 0 1.312 13.2 2.186 13.2s1.311 19.8 2.185 19.8 1.312-52.8 2.186-52.8h2.186c.874 0 1.311-13.2 2.185-13.2s1.312 6.6 2.186 6.6 1.311-13.2 2.186-13.2c.874 0 1.311-19.8 2.185-19.8s1.312 19.8 2.186 19.8 1.311 46.2 2.186 46.2c.874 0 1.31-33 2.185-33s1.311 13.2 2.186 13.2c.874 0 1.311-13.2 2.185-13.2s1.312-6.6 2.186-6.6 1.311-46.2 2.186-46.2c.874 0 1.311 26.4 2.185 26.4h4.372c.874 0 1.311-6.6 2.185-6.6s1.312-6.6 2.186-6.6 1.311 26.4 2.186 26.4c.874 0 1.31-13.2 2.185-13.2s1.312-13.2 2.186-13.2h2.185c.875 0 1.312-13.2 2.186-13.2s1.311 13.2 2.186 13.2c.874 0 1.311 19.8 2.185 19.8s1.312-19.8 2.186-19.8 1.311-46.2 2.186-46.2c.874 0 1.311-26.4 2.185-26.4s1.312 46.2 2.186 46.2S249.29 33 250.165 33c.874 0 1.311 26.4 2.185 26.4s1.312 19.8 2.186 19.8 1.311 33 2.185 33 1.749-26.4 2.186-26.4v184.8c-.437 0-1.311-6.6-2.185-6.6s-1.312-6.6-2.186-6.6-1.311-13.2-2.186-13.2c-.874 0-1.311-19.8-2.185-19.8h-2.186c-.874 0-1.311-19.8-2.186-19.8-.874 0-1.311 6.6-2.185 6.6s-1.312 26.4-2.186 26.4-1.311 6.6-2.186 6.6c-.874 0-1.31 13.2-2.185 13.2h-2.186c-.874 0-1.311-6.6-2.186-6.6-.874 0-1.31-6.6-2.185-6.6-.874 0-1.311 6.6-2.186 6.6-.874 0-1.311 19.8-2.185 19.8s-1.312-19.8-2.186-19.8-1.311 6.6-2.186 6.6c-.874 0-1.311 6.6-2.185 6.6s-1.312-6.6-2.186-6.6-1.311-26.4-2.186-26.4c-.874 0-1.31-13.2-2.185-13.2-.874 0-1.312 26.4-2.186 26.4s-1.311 19.8-2.186 19.8c-.874 0-1.31 19.8-2.185 19.8s-1.311 6.6-2.186 6.6c-.874 0-1.311-6.6-2.185-6.6s-1.312-13.2-2.186-13.2-1.311-26.4-2.186-26.4c-.874 0-1.311 13.2-2.185 13.2s-1.312 6.6-2.186 6.6h-2.186c-.874 0-1.311-6.6-2.185-6.6s-1.312 19.8-2.186 19.8-1.311 13.2-2.186 13.2c-.874 0-1.31 6.6-2.185 6.6-.874 0-1.311-13.2-2.186-13.2-.874 0-1.311 6.6-2.185 6.6s-1.312 26.4-2.186 26.4h-2.186c-.874 0-1.311-13.2-2.185-13.2s-1.312-13.2-2.186-13.2-1.311 19.8-2.186 19.8c-.874 0-1.311 19.8-2.185 19.8s-1.312-6.6-2.186-6.6-1.311 19.8-2.186 19.8c-.874 0-1.31 13.2-2.185 13.2-.874 0-1.312-6.6-2.186-6.6s-1.32 19.8-2.185 19.8c-.866 0-1.285 13.2-2.14 13.2-.857 0-1.275 6.6-2.14 6.6s-1.312-13.2-2.186-13.2c-.875 0-1.312-13.2-2.186-13.2s-1.311 19.8-2.186 19.8c-.874 0-1.311-26.4-2.185-26.4s-1.312-6.6-2.186-6.6h-2.186c-.874 0-1.31-6.6-2.185-6.6s-1.311-19.8-2.186-19.8c-.874 0-1.311 26.4-2.185 26.4s-1.312 26.4-2.186 26.4-1.311-6.6-2.186-6.6c-.874 0-1.311-19.8-2.185-19.8s-1.312-13.2-2.186-13.2-1.311 19.8-2.186 19.8h-2.185c-.875 0-1.312 19.8-2.186 19.8h-2.186c-.874 0-1.31-13.2-2.185-13.2-.874 0-1.312 13.2-2.186 13.2h-2.185c-.875 0-1.312-19.8-2.186-19.8s-1.311-6.6-2.186-6.6c-.874 0-1.311-19.8-2.185-19.8s-1.312 6.6-2.186 6.6h-2.186c-.874 0-1.311-26.4-2.185-26.4s-1.312-6.6-2.186-6.6-1.311-6.6-2.186-6.6c-.874 0-1.311 6.6-2.185 6.6s-1.312-19.8-2.186-19.8-1.311-13.2-2.186-13.2c-.874 0-1.31-13.2-2.185-13.2-.874 0-1.311-13.2-2.186-13.2-.874 0-1.311 6.6-2.185 6.6h-2.186c-.874 0-1.311-19.8-2.186-19.8-.874 0-1.311-19.8-2.185-19.8S67.536 231 66.662 231s-1.311-19.8-2.186-19.8c-.874 0-1.311-13.2-2.185-13.2s-1.312-19.8-2.186-19.8-1.311 13.2-2.186 13.2c-.874 0-1.31 6.6-2.185 6.6s-1.312 13.2-2.186 13.2-1.311-19.8-2.186-19.8c-.874 0-1.31-13.2-2.185-13.2-.874 0-1.312-13.2-2.186-13.2H42.62c-.874 0-1.311-6.6-2.186-6.6-.874 0-1.311 19.8-2.185 19.8S36.937 198 36.063 198h-2.186c-.874 0-1.31 6.6-2.185 6.6s-1.312-6.6-2.186-6.6-1.311 6.6-2.186 6.6c-.874 0-1.31-6.6-2.185-6.6-.874 0-1.312-19.8-2.186-19.8S21.638 198 20.764 198s-1.312 6.6-2.186 6.6-1.311-6.6-2.186-6.6c-.874 0-1.311 13.2-2.185 13.2s-1.312-19.8-2.186-19.8-1.311-6.6-2.186-6.6c-.874 0-1.311-13.2-2.185-13.2H3.279c-.875 0-1.749-13.2-2.186-13.2z" stroke="none"/>
            <path d="M1.093 151.8c.437 0 1.311-13.2 2.186-13.2.874 0 1.31 13.2 2.185 13.2H7.65c.874 0 1.311 26.4 2.185 26.4h2.186c.874 0 1.311 13.2 2.186 13.2.874 0 1.311-19.8 2.185-19.8s1.312-13.2 2.186-13.2 1.311 19.8 2.186 19.8c.874 0 1.31-39.6 2.185-39.6.874 0 1.312 33 2.186 33h2.185c.875 0 1.312-13.2 2.186-13.2s1.311 6.6 2.186 6.6h2.185c.875 0 1.312-6.6 2.186-6.6s1.311-33 2.186-33c.874 0 1.311-6.6 2.185-6.6s1.312 6.6 2.186 6.6 1.311-6.6 2.186-6.6c.874 0 1.31-6.6 2.185-6.6.874 0 1.312 26.4 2.186 26.4s1.311-6.6 2.185-6.6 1.312 26.4 2.186 26.4h2.186c.874 0 1.311-26.4 2.185-26.4s1.312-6.6 2.186-6.6 1.311 33 2.186 33c.874 0 1.311 19.8 2.185 19.8s1.312-19.8 2.186-19.8h2.186c.874 0 1.311 13.2 2.185 13.2s1.312 6.6 2.186 6.6 1.311 13.2 2.186 13.2c.874 0 1.31-6.6 2.185-6.6h2.186c.874 0 1.311 6.6 2.186 6.6.874 0 1.31 13.2 2.185 13.2.874 0 1.311 26.4 2.186 26.4.874 0 1.311-19.8 2.185-19.8s1.312 39.6 2.186 39.6h2.186c.874 0 1.311 13.2 2.185 13.2s1.312 13.2 2.186 13.2 1.311-33 2.186-33c.874 0 1.31 26.4 2.185 26.4.874 0 1.312 26.4 2.186 26.4s1.311-19.8 2.186-19.8c.874 0 1.31 33 2.185 33 .874 0 1.312-26.4 2.186-26.4s1.311-6.6 2.185-6.6 1.312 6.6 2.186 6.6 1.311-33 2.186-33c.874 0 1.311-6.6 2.185-6.6s1.312 13.2 2.186 13.2h2.186c.874 0 1.311 13.2 2.185 13.2h2.186c.874 0 1.311-26.4 2.186-26.4.874 0 1.31-6.6 2.185-6.6s1.311 26.4 2.186 26.4c.874 0 1.311-19.8 2.185-19.8s1.312 13.2 2.186 13.2 1.311-6.6 2.186-6.6c.874 0 1.311 19.8 2.185 19.8s1.312-19.8 2.186-19.8 1.311 33 2.186 33c.874 0 1.32-6.6 2.185-6.6S151 264 151.856 264s1.275 6.6 2.14 6.6 1.312-26.4 2.186-26.4 1.312 13.2 2.186 13.2 1.311-39.6 2.185-39.6 1.312-13.2 2.186-13.2 1.311 6.6 2.186 6.6c.874 0 1.311-39.6 2.185-39.6s1.312 13.2 2.186 13.2 1.311-6.6 2.186-6.6h4.371c.874 0 1.311-19.8 2.185-19.8s1.312-6.6 2.186-6.6c.875 0 1.312 13.2 2.186 13.2s1.311 19.8 2.185 19.8 1.312-52.8 2.186-52.8h2.186c.874 0 1.311-13.2 2.185-13.2s1.312 6.6 2.186 6.6 1.311-13.2 2.186-13.2c.874 0 1.311-19.8 2.185-19.8s1.312 19.8 2.186 19.8 1.311 46.2 2.186 46.2c.874 0 1.31-33 2.185-33s1.311 13.2 2.186 13.2c.874 0 1.311-13.2 2.185-13.2s1.312-6.6 2.186-6.6 1.311-46.2 2.186-46.2c.874 0 1.311 26.4 2.185 26.4h4.372c.874 0 1.311-6.6 2.185-6.6s1.312-6.6 2.186-6.6 1.311 26.4 2.186 26.4c.874 0 1.31-13.2 2.185-13.2s1.312-13.2 2.186-13.2h2.185c.875 0 1.312-13.2 2.186-13.2s1.311 13.2 2.186 13.2c.874 0 1.311 19.8 2.185 19.8s1.312-19.8 2.186-19.8 1.311-46.2 2.186-46.2c.874 0 1.311-26.4 2.185-26.4s1.312 46.2 2.186 46.2S249.29 33 250.165 33c.874 0 1.311 26.4 2.185 26.4s1.312 19.8 2.186 19.8 1.311 33 2.185 33 1.749-26.4 2.186-26.4" fill="none"/>
          </g>
        </g>
        <g transform="translate(66 47)"/>
      </g>
      <g fill-opacity="0" stroke="#dc67ce" aria-label="Series">
        <g clip-path="url(&quot;#c&quot;)" transform="translate(66 47)">
          <g fill="#6794dc" style="pointer-events:none">
            <g stroke-opacity="0"/>
            <path d="M1.093 158.4c.437 0 1.311 13.2 2.186 13.2H7.65c.874 0 1.311 13.2 2.185 13.2s1.312 6.6 2.186 6.6 1.311 19.8 2.186 19.8c.874 0 1.311-13.2 2.185-13.2s1.312 6.6 2.186 6.6 1.311-6.6 2.186-6.6c.874 0 1.31-19.8 2.185-19.8.874 0 1.312 19.8 2.186 19.8s1.311 6.6 2.185 6.6 1.312-6.6 2.186-6.6 1.311 6.6 2.186 6.6c.874 0 1.311-6.6 2.185-6.6h2.186c.874 0 1.311-19.8 2.186-19.8.874 0 1.311-19.8 2.185-19.8s1.312 6.6 2.186 6.6h4.371c.874 0 1.312 13.2 2.186 13.2s1.311 13.2 2.185 13.2 1.312 19.8 2.186 19.8S54.86 198 55.734 198s1.311-6.6 2.185-6.6 1.312-13.2 2.186-13.2 1.311 19.8 2.186 19.8c.874 0 1.311 13.2 2.185 13.2s1.312 19.8 2.186 19.8 1.311-19.8 2.186-19.8c.874 0 1.311 19.8 2.185 19.8s1.312 19.8 2.186 19.8h2.186c.874 0 1.31-6.6 2.185-6.6.874 0 1.311 13.2 2.186 13.2.874 0 1.311 13.2 2.186 13.2.874 0 1.31 13.2 2.185 13.2.874 0 1.311 19.8 2.186 19.8.874 0 1.311-6.6 2.185-6.6s1.312 6.6 2.186 6.6 1.311 6.6 2.186 6.6c.874 0 1.311 26.4 2.185 26.4h2.186c.874 0 1.311-6.6 2.186-6.6.874 0 1.31 19.8 2.185 19.8.874 0 1.312 6.6 2.186 6.6s1.311 19.8 2.186 19.8h2.185c.874 0 1.312-13.2 2.186-13.2s1.311 13.2 2.185 13.2h2.186c.874 0 1.311-19.8 2.186-19.8h2.185c.875 0 1.312-19.8 2.186-19.8s1.311 13.2 2.186 13.2c.874 0 1.311 19.8 2.185 19.8s1.312 6.6 2.186 6.6 1.311-26.4 2.186-26.4c.874 0 1.31-26.4 2.185-26.4s1.311 19.8 2.186 19.8c.874 0 1.311 6.6 2.185 6.6h2.186c.874 0 1.311 6.6 2.186 6.6.874 0 1.311 26.4 2.185 26.4s1.312-19.8 2.186-19.8 1.311 13.2 2.186 13.2c.874 0 1.32 13.2 2.185 13.2s1.284-6.6 2.14-6.6 1.275-13.2 2.14-13.2 1.312-19.8 2.186-19.8 1.312 6.6 2.186 6.6 1.311-13.2 2.185-13.2 1.312-19.8 2.186-19.8 1.311 6.6 2.186 6.6c.874 0 1.311-19.8 2.185-19.8s1.312-19.8 2.186-19.8 1.311 13.2 2.186 13.2c.874 0 1.311 13.2 2.185 13.2h2.186c.874 0 1.311-26.4 2.185-26.4s1.312-6.6 2.186-6.6c.875 0 1.312 13.2 2.186 13.2s1.311-6.6 2.185-6.6 1.312-13.2 2.186-13.2 1.311-19.8 2.186-19.8c.874 0 1.311 6.6 2.185 6.6h2.186c.874 0 1.311-6.6 2.186-6.6.874 0 1.311-13.2 2.185-13.2s1.312 26.4 2.186 26.4 1.311 13.2 2.186 13.2c.874 0 1.31 6.6 2.185 6.6s1.311-6.6 2.186-6.6c.874 0 1.311-19.8 2.185-19.8s1.312-19.8 2.186-19.8 1.311-26.4 2.186-26.4c.874 0 1.311 13.2 2.185 13.2s1.312 26.4 2.186 26.4 1.311 6.6 2.186 6.6c.874 0 1.311-6.6 2.185-6.6s1.312-6.6 2.186-6.6 1.311 19.8 2.186 19.8c.874 0 1.31-19.8 2.185-19.8s1.312-6.6 2.186-6.6 1.311 6.6 2.185 6.6 1.312 6.6 2.186 6.6h2.186c.874 0 1.311-13.2 2.185-13.2s1.312-6.6 2.186-6.6 1.311-26.4 2.186-26.4c.874 0 1.311-6.6 2.185-6.6s1.312 19.8 2.186 19.8h2.186c.874 0 1.311 19.8 2.185 19.8s1.312 13.2 2.186 13.2 1.311 6.6 2.185 6.6 1.749 6.6 2.186 6.6" fill="none"/>
          </g>
        </g>
        <g transform="translate(66 47)"/>
      </g>
      <g clip-path="url(&quot;#d&quot;)" transform="translate(66 47)">
        <g fill="#67b7dc" stroke="#67b7dc"/>
        <g fill="#6794dc" stroke="#dc67ce"/>
      </g>
      <g transform="translate(66 47)"/>
      <g transform="translate(66 47)"/>
      <g transform="translate(66 47)"/>
      <g transform="translate(66 47)"/>
    </g>
    <g aria-hidden="true">
      <g transform="rotate(-90 130 115)"/>
      <text y="18" dy="-4.86" transform="translate(39 434)" style="user-select:none"><tspan>60</tspan></text>
      <text y="18" dy="-4.86" transform="translate(39 368)" style="user-select:none"><tspan>70</tspan></text>
      <text y="18" dy="-4.86" transform="translate(39 302)" style="user-select:none"><tspan>80</tspan></text>
      <text y="18" dy="-4.86" transform="translate(39 236)" style="user-select:none"><tspan>90</tspan></text>
      <text y="18" dy="-4.86" transform="translate(31 170)" style="user-select:none"><tspan>100</tspan></text>
      <text y="18" dy="-4.86" transform="translate(31 104)" style="user-select:none"><tspan>110</tspan></text>
      <text y="18" dy="-4.86" transform="translate(31 38)" style="user-select:none"><tspan>120</tspan></text>
      <path d="M-.5-.5v396" transform="translate(66 47)" fill="none" style="pointer-events:none"/>
    </g>
    <g transform="translate(326 47)"/>
    <g aria-valuemin="0" aria-valuemax="100" aria-valuenow="0" aria-valuetext="From Jan to Apr" aria-labelledby="id-168-title" aria-orientation="horizontal" aria-controls="id-22">
      <path d="M72 25h248a6 6 0 0 1 6 6 6 6 0 0 1-6 6H72a6 6 0 0 1-6-6 6 6 0 0 1 6-6" fill="#f3f3f3" fill-opacity=".5"/>
    </g>
    <g aria-hidden="true">
      <path d="M-.5-.5h260" transform="translate(66 443)" fill="none" style="pointer-events:none"/>
      <text y="22" dy="-5.94" transform="translate(29.5 453)" style="user-select:none"><tspan>Jan 2018</tspan></text>
      <text y="22" dy="-5.94" transform="translate(179.953 453)" style="user-select:none"><tspan>Mar</tspan></text>
      <g transform="translate(196 485)"/>
    </g>
  </g>
</svg>
