<svg width="615.857" height="468.857">
  <clipPath id="a">
    <path d="M-1-1h617.9v470.9H-1z"/>
  </clipPath>
  <g class="wj-header" clip-path="url(#a)"/>
  <g class="wj-footer" clip-path="url(#a)"/>
  <clipPath id="b">
    <path d="M546 210h70.9v48.9H546z"/>
  </clipPath>
  <g class="wj-legend" clip-path="url(#b)">
    <path fill="transparent" d="M547 211h68.9v46.9H547z"/>
    <circle stroke="#ddca9a" fill="rgba(221,202,154,0.7)" cx="556" cy="222.7" r="3"/>
    <text x="565" y="227.6" class="wj-label">Male</text>
    <circle stroke="#778deb" fill="rgba(119,141,235,0.7)" cx="556" cy="246.1" r="3"/>
    <text x="565" y="251" class="wj-label">Female</text>
  </g>
  <path fill="transparent" class="wj-plot-area" d="M55 15.4h480.2V424H55z"/>
  <g class="wj-axis-x" clip-path="url(#a)">
    <text x="43.3" y="445.6" fill="#666" class="wj-label">140</text>
    <path stroke="#666" class="wj-tick" d="M55 424v4"/>
    <text x="123.3" y="445.6" fill="#666" class="wj-label">150</text>
    <path stroke="#666" class="wj-tick" d="M135 424v4"/>
    <text x="203.4" y="445.6" fill="#666" class="wj-label">160</text>
    <path stroke="#666" class="wj-tick" d="M215.1 424v4"/>
    <text x="283.4" y="445.6" fill="#666" class="wj-label">170</text>
    <path stroke="#666" class="wj-tick" d="M295.1 424v4"/>
    <text x="363.4" y="445.6" fill="#666" class="wj-label">180</text>
    <path stroke="#666" class="wj-tick" d="M375.1 424v4"/>
    <text x="443.5" y="445.6" fill="#666" class="wj-label">190</text>
    <path stroke="#666" class="wj-tick" d="M455.1 424v4"/>
    <text x="523.5" y="445.6" fill="#666" class="wj-label">200</text>
    <path stroke="#666" class="wj-tick" d="M535.2 424v4"/>
    <path stroke="#666" class="wj-line" d="M55 424h480.2"/>
    <text x="262" y="466" fill="#666" class="wj-title">height(cm)</text>
  </g>
  <g class="wj-axis-y" clip-path="url(#a)">
    <text x="26.4" y="428.9" fill="#666" class="wj-label">40</text>
    <text x="26.4" y="377.8" fill="#666" class="wj-label">50</text>
    <text x="26.4" y="326.7" fill="#666" class="wj-label">60</text>
    <text x="26.4" y="275.6" fill="#666" class="wj-label">70</text>
    <text x="26.4" y="224.6" fill="#666" class="wj-label">80</text>
    <text x="26.4" y="173.5" fill="#666" class="wj-label">90</text>
    <text x="18.6" y="122.4" fill="#666" class="wj-label">100</text>
    <text x="19.7" y="71.4" fill="#666" class="wj-label">110</text>
    <text x="18.6" y="20.3" fill="#666" class="wj-label">120</text>
    <text x="-24.6" y="224.6" fill="#666" class="wj-title" transform="rotate(-90 7.7 219.7)">weight(kg)</text>
    <path stroke="#666" class="wj-line" d="M55 15.4V424"/>
  </g>
  <g class="wj-series-group" stroke-width="2">
    <g stroke="#ddca9a" fill="rgba(221,202,154,0.7)">
      <circle cx="327.1" cy="293.3" r="5"/>
      <circle cx="337.5" cy="261.6" r="5"/>
      <circle cx="483.2" cy="216.1" r="5"/>
      <circle cx="427.1" cy="257.5" r="5"/>
      <circle cx="432.7" cy="225.8" r="5"/>
      <circle cx="387.1" cy="246.3" r="5"/>
      <circle cx="407.1" cy="187" r="5"/>
      <circle cx="411.1" cy="227.9" r="5"/>
      <circle cx="335.1" cy="311.6" r="5"/>
      <circle cx="407.1" cy="211.5" r="5"/>
      <circle cx="375.1" cy="237.1" r="5"/>
      <circle cx="357.5" cy="201.3" r="5"/>
      <circle cx="471.2" cy="168.6" r="5"/>
      <circle cx="343.1" cy="247.3" r="5"/>
      <circle cx="327.1" cy="265.7" r="5"/>
      <circle cx="407.1" cy="221.8" r="5"/>
      <circle cx="476.8" cy="149.2" r="5"/>
      <circle cx="307.1" cy="270.8" r="5"/>
      <circle cx="319.1" cy="258.5" r="5"/>
      <circle cx="343.1" cy="189.6" r="5"/>
      <circle cx="343.1" cy="225.8" r="5"/>
      <circle cx="379.1" cy="230.9" r="5"/>
      <circle cx="316.7" cy="290.2" r="5"/>
      <circle cx="343.1" cy="187" r="5"/>
      <circle cx="323.1" cy="210.5" r="5"/>
      <circle cx="359.1" cy="170.7" r="5"/>
      <circle cx="377.5" cy="205.4" r="5"/>
      <circle cx="377.5" cy="238.1" r="5"/>
      <circle cx="251.1" cy="305.5" r="5"/>
      <circle cx="319.1" cy="317.3" r="5"/>
      <circle cx="403.1" cy="246.3" r="5"/>
      <circle cx="339.1" cy="270.8" r="5"/>
      <circle cx="439.1" cy="258.5" r="5"/>
      <circle cx="448.7" cy="198.8" r="5"/>
      <circle cx="317.5" cy="275.4" r="5"/>
      <circle cx="295.1" cy="324.4" r="5"/>
      <circle cx="391.1" cy="285.1" r="5"/>
      <circle cx="295.1" cy="315.2" r="5"/>
      <circle cx="357.5" cy="277.9" r="5"/>
      <circle cx="408.7" cy="219.2" r="5"/>
      <circle cx="428.7" cy="179.9" r="5"/>
      <circle cx="306.3" cy="195.7" r="5"/>
      <circle cx="316.7" cy="253.4" r="5"/>
      <circle cx="337.5" cy="260.1" r="5"/>
      <circle cx="377.5" cy="206.4" r="5"/>
      <circle cx="398.3" cy="175.3" r="5"/>
      <circle cx="439.1" cy="198.8" r="5"/>
      <circle cx="352.7" cy="147.7" r="5"/>
      <circle cx="311.9" cy="245.8" r="5"/>
      <circle cx="271.1" cy="326.5" r="5"/>
      <circle cx="291.1" cy="242.2" r="5"/>
      <circle cx="327.1" cy="188" r="5"/>
      <circle cx="316.7" cy="243.7" r="5"/>
      <circle cx="392.7" cy="183.5" r="5"/>
      <circle cx="247.9" cy="346.4" r="5"/>
      <circle cx="239.1" cy="337.2" r="5"/>
      <circle cx="307.1" cy="314.7" r="5"/>
      <circle cx="408.7" cy="236.1" r="5"/>
      <circle cx="327.1" cy="185" r="5"/>
      <circle cx="327.1" cy="259.5" r="5"/>
      <circle cx="351.1" cy="262.6" r="5"/>
      <circle cx="423.1" cy="195.2" r="5"/>
      <circle cx="271.1" cy="280" r="5"/>
      <circle cx="309.5" cy="290.7" r="5"/>
      <circle cx="391.1" cy="260.6" r="5"/>
      <circle cx="271.1" cy="298.4" r="5"/>
      <circle cx="357.5" cy="246.3" r="5"/>
      <circle cx="251.1" cy="270.8" r="5"/>
      <circle cx="471.2" cy="109.4" r="5"/>
      <circle cx="339.1" cy="305.5" r="5"/>
      <circle cx="304.7" cy="224.3" r="5"/>
      <circle cx="387.9" cy="225.3" r="5"/>
      <circle cx="274.3" cy="282.5" r="5"/>
      <circle cx="383.9" cy="291.2" r="5"/>
      <circle cx="351.1" cy="280" r="5"/>
      <circle cx="331.1" cy="301.9" r="5"/>
      <circle cx="355.1" cy="260.6" r="5"/>
      <circle cx="299.1" cy="338.2" r="5"/>
      <circle cx="394.3" cy="247.8" r="5"/>
      <circle cx="512" cy="164" r="5"/>
      <circle cx="375.9" cy="153.3" r="5"/>
      <circle cx="339.1" cy="215.1" r="5"/>
      <circle cx="379.9" cy="257" r="5"/>
      <circle cx="410.3" cy="281" r="5"/>
      <circle cx="339.1" cy="266.2" r="5"/>
      <circle cx="379.9" cy="258" r="5"/>
      <circle cx="351.1" cy="258" r="5"/>
      <circle cx="351.9" cy="202.3" r="5"/>
      <circle cx="387.9" cy="242.7" r="5"/>
      <circle cx="347.1" cy="255.5" r="5"/>
      <circle cx="335.1" cy="269.8" r="5"/>
      <circle cx="327.1" cy="253.4" r="5"/>
      <circle cx="255.9" cy="268.2" r="5"/>
      <circle cx="351.1" cy="276.4" r="5"/>
      <circle cx="471.2" cy="105.8" r="5"/>
      <circle cx="347.1" cy="279" r="5"/>
      <circle cx="290.3" cy="291.7" r="5"/>
      <circle cx="391.9" cy="241.7" r="5"/>
      <circle cx="373.5" cy="196.7" r="5"/>
      <circle cx="337.5" cy="180.4" r="5"/>
      <circle cx="414.3" cy="187" r="5"/>
      <circle cx="353.5" cy="254.4" r="5"/>
      <circle cx="274.3" cy="353" r="5"/>
      <circle cx="359.9" cy="260.6" r="5"/>
      <circle cx="286.3" cy="344.8" r="5"/>
      <circle cx="192.7" cy="330" r="5"/>
      <circle cx="377.5" cy="203.4" r="5"/>
      <circle cx="296.7" cy="257" r="5"/>
      <circle cx="357.5" cy="300.9" r="5"/>
      <circle cx="316.7" cy="259" r="5"/>
      <circle cx="255.9" cy="296.3" r="5"/>
      <circle cx="428.7" cy="187" r="5"/>
      <circle cx="255.9" cy="296.3" r="5"/>
      <circle cx="327.1" cy="175.8" r="5"/>
      <circle cx="337.5" cy="198.8" r="5"/>
      <circle cx="418.3" cy="287.1" r="5"/>
      <circle cx="357.5" cy="242.7" r="5"/>
      <circle cx="377.5" cy="152.3" r="5"/>
      <circle cx="377.5" cy="205.9" r="5"/>
      <circle cx="357.5" cy="332.1" r="5"/>
      <circle cx="357.5" cy="222.3" r="5"/>
      <circle cx="357.5" cy="226.9" r="5"/>
      <circle cx="357.5" cy="261.6" r="5"/>
      <circle cx="357.5" cy="33.8" r="5"/>
      <circle cx="245.5" cy="259.5" r="5"/>
      <circle cx="439.1" cy="201.3" r="5"/>
      <circle cx="520" cy="191.6" r="5"/>
      <circle cx="337.5" cy="164" r="5"/>
      <circle cx="266.3" cy="189.6" r="5"/>
      <circle cx="459.1" cy="173.2" r="5"/>
      <circle cx="266.3" cy="245.2" r="5"/>
      <circle cx="357.5" cy="231.5" r="5"/>
      <circle cx="372.7" cy="187" r="5"/>
      <circle cx="316.7" cy="164" r="5"/>
      <circle cx="459.1" cy="252.4" r="5"/>
      <circle cx="418.3" cy="238.1" r="5"/>
      <circle cx="286.3" cy="275.4" r="5"/>
      <circle cx="275.9" cy="196.7" r="5"/>
      <circle cx="337.5" cy="298.9" r="5"/>
      <circle cx="296.7" cy="275.4" r="5"/>
      <circle cx="459.1" cy="73.7" r="5"/>
      <circle cx="357.5" cy="187" r="5"/>
      <circle cx="459.1" cy="215.1" r="5"/>
      <circle cx="357.5" cy="180.4" r="5"/>
      <circle cx="408.7" cy="145.7" r="5"/>
      <circle cx="347.1" cy="218.7" r="5"/>
      <circle cx="357.5" cy="260.6" r="5"/>
      <circle cx="377.5" cy="263.6" r="5"/>
      <circle cx="306.3" cy="257" r="5"/>
      <circle cx="316.7" cy="198.8" r="5"/>
      <circle cx="316.7" cy="236.1" r="5"/>
      <circle cx="357.5" cy="303.5" r="5"/>
      <circle cx="357.5" cy="215.1" r="5"/>
      <circle cx="398.3" cy="215.1" r="5"/>
      <circle cx="296.7" cy="191.6" r="5"/>
      <circle cx="275.9" cy="277.9" r="5"/>
      <circle cx="337.5" cy="282.5" r="5"/>
      <circle cx="255.9" cy="289.2" r="5"/>
      <circle cx="418.3" cy="105.8" r="5"/>
      <circle cx="387.9" cy="268.2" r="5"/>
      <circle cx="316.7" cy="138.5" r="5"/>
      <circle cx="459.1" cy="198.8" r="5"/>
      <circle cx="367.9" cy="182.4" r="5"/>
      <circle cx="337.5" cy="261.6" r="5"/>
      <circle cx="296.7" cy="291.7" r="5"/>
      <circle cx="479.2" cy="138.5" r="5"/>
      <circle cx="306.3" cy="161.5" r="5"/>
      <circle cx="357.5" cy="210.5" r="5"/>
      <circle cx="357.5" cy="133.9" r="5"/>
      <circle cx="275.9" cy="275.4" r="5"/>
      <circle cx="275.9" cy="205.9" r="5"/>
      <circle cx="377.5" cy="242.7" r="5"/>
      <circle cx="398.3" cy="222.3" r="5"/>
      <circle cx="347.1" cy="252.4" r="5"/>
      <circle cx="428.7" cy="159.4" r="5"/>
      <circle cx="439.1" cy="198.8" r="5"/>
      <circle cx="439.1" cy="189.6" r="5"/>
      <circle cx="357.5" cy="210.5" r="5"/>
      <circle cx="327.1" cy="206.9" r="5"/>
      <circle cx="357.5" cy="217.2" r="5"/>
      <circle cx="306.3" cy="270.8" r="5"/>
      <circle cx="418.3" cy="210.5" r="5"/>
      <circle cx="418.3" cy="198.8" r="5"/>
      <circle cx="439.1" cy="166.1" r="5"/>
      <circle cx="439.1" cy="161.5" r="5"/>
      <circle cx="398.3" cy="173.2" r="5"/>
      <circle cx="347.1" cy="194.2" r="5"/>
      <circle cx="337.5" cy="275.4" r="5"/>
      <circle cx="337.5" cy="252.4" r="5"/>
      <circle cx="439.1" cy="217.2" r="5"/>
      <circle cx="439.1" cy="205.9" r="5"/>
      <circle cx="337.5" cy="187" r="5"/>
      <circle cx="299.1" cy="282.5" r="5"/>
      <circle cx="367.9" cy="154.9" r="5"/>
      <circle cx="357.5" cy="150.3" r="5"/>
      <circle cx="337.5" cy="266.2" r="5"/>
      <circle cx="398.3" cy="245.2" r="5"/>
      <circle cx="301.5" cy="152.3" r="5"/>
      <circle cx="439.1" cy="152.3" r="5"/>
      <circle cx="377.5" cy="231.5" r="5"/>
      <circle cx="357.5" cy="314.7" r="5"/>
      <circle cx="418.3" cy="147.7" r="5"/>
      <circle cx="286.3" cy="245.2" r="5"/>
      <circle cx="418.3" cy="201.3" r="5"/>
      <circle cx="377.5" cy="191.6" r="5"/>
      <circle cx="327.1" cy="250.9" r="5"/>
      <circle cx="275.9" cy="287.1" r="5"/>
      <circle cx="398.3" cy="182.4" r="5"/>
      <circle cx="215.1" cy="259" r="5"/>
      <circle cx="377.5" cy="175.8" r="5"/>
      <circle cx="275.9" cy="242.7" r="5"/>
      <circle cx="428.7" cy="110.4" r="5"/>
      <circle cx="337.5" cy="163" r="5"/>
      <circle cx="337.5" cy="284.6" r="5"/>
      <circle cx="342.3" cy="231.5" r="5"/>
      <circle cx="337.5" cy="210.5" r="5"/>
      <circle cx="367.9" cy="242.7" r="5"/>
      <circle cx="387.9" cy="196.7" r="5"/>
      <circle cx="357.5" cy="237.1" r="5"/>
      <circle cx="398.3" cy="194.2" r="5"/>
      <circle cx="357.5" cy="104.8" r="5"/>
      <circle cx="408.7" cy="233.5" r="5"/>
      <circle cx="367.9" cy="261.6" r="5"/>
      <circle cx="347.1" cy="179.4" r="5"/>
      <circle cx="439.1" cy="146.7" r="5"/>
      <circle cx="327.1" cy="266.2" r="5"/>
      <circle cx="275.9" cy="298.9" r="5"/>
      <circle cx="296.7" cy="233.5" r="5"/>
      <circle cx="275.9" cy="259" r="5"/>
      <circle cx="439.1" cy="182.4" r="5"/>
      <circle cx="327.1" cy="219.7" r="5"/>
      <circle cx="347.1" cy="208" r="5"/>
      <circle cx="377.5" cy="252.4" r="5"/>
      <circle cx="275.9" cy="249.8" r="5"/>
      <circle cx="439.1" cy="189.6" r="5"/>
      <circle cx="377.5" cy="254.4" r="5"/>
      <circle cx="275.9" cy="238.6" r="5"/>
      <circle cx="399.1" cy="291.7" r="5"/>
      <circle cx="399.1" cy="164" r="5"/>
      <circle cx="367.9" cy="173.2" r="5"/>
      <circle cx="296.7" cy="310.1" r="5"/>
      <circle cx="357.5" cy="205.9" r="5"/>
      <circle cx="367.9" cy="224.3" r="5"/>
      <circle cx="459.1" cy="126.8" r="5"/>
      <circle cx="357.5" cy="198.8" r="5"/>
      <circle cx="377.5" cy="203.4" r="5"/>
      <circle cx="377.5" cy="203.4" r="5"/>
    </g>
    <g stroke="#778deb" fill="rgba(119,141,235,0.7)">
      <circle cx="224.7" cy="364.8" r="5"/>
      <circle cx="275.1" cy="327" r="5"/>
      <circle cx="211.1" cy="377" r="5"/>
      <circle cx="191.1" cy="306.5" r="5"/>
      <circle cx="181.4" cy="354.5" r="5"/>
      <circle cx="295.1" cy="327" r="5"/>
      <circle cx="207.9" cy="385.2" r="5"/>
      <circle cx="263.1" cy="271.8" r="5"/>
      <circle cx="344.7" cy="287.1" r="5"/>
      <circle cx="216.7" cy="244.2" r="5"/>
      <circle cx="315.1" cy="346.4" r="5"/>
      <circle cx="302.3" cy="351.5" r="5"/>
      <circle cx="318.3" cy="309.1" r="5"/>
      <circle cx="162.2" cy="413.8" r="5"/>
      <circle cx="215.1" cy="372.9" r="5"/>
      <circle cx="112.6" cy="373.9" r="5"/>
      <circle cx="280.7" cy="377" r="5"/>
      <circle cx="335.1" cy="254.4" r="5"/>
      <circle cx="191.1" cy="384.2" r="5"/>
      <circle cx="275.9" cy="276.9" r="5"/>
      <circle cx="211.1" cy="369.9" r="5"/>
      <circle cx="335.1" cy="206.9" r="5"/>
      <circle cx="269.5" cy="336.2" r="5"/>
      <circle cx="347.1" cy="179.9" r="5"/>
      <circle cx="296.7" cy="256.5" r="5"/>
      <circle cx="327.1" cy="349.9" r="5"/>
      <circle cx="319.1" cy="322.9" r="5"/>
      <circle cx="374.3" cy="284.6" r="5"/>
      <circle cx="299.1" cy="282" r="5"/>
      <circle cx="215.1" cy="388.2" r="5"/>
      <circle cx="170.2" cy="392.3" r="5"/>
      <circle cx="231.1" cy="347.4" r="5"/>
      <circle cx="347.1" cy="204.4" r="5"/>
      <circle cx="215.1" cy="350.5" r="5"/>
      <circle cx="151" cy="394.4" r="5"/>
      <circle cx="231.9" cy="354.5" r="5"/>
      <circle cx="295.1" cy="254.4" r="5"/>
      <circle cx="216.7" cy="362.2" r="5"/>
      <circle cx="225.5" cy="281.5" r="5"/>
      <circle cx="266.3" cy="339.2" r="5"/>
      <circle cx="286.3" cy="310.1" r="5"/>
      <circle cx="245.5" cy="329.5" r="5"/>
      <circle cx="275.9" cy="349.9" r="5"/>
      <circle cx="215.1" cy="371.9" r="5"/>
      <circle cx="225.5" cy="320.3" r="5"/>
      <circle cx="275.9" cy="330.5" r="5"/>
      <circle cx="255.9" cy="341.3" r="5"/>
      <circle cx="215.1" cy="371.9" r="5"/>
      <circle cx="295.1" cy="256" r="5"/>
      <circle cx="195.1" cy="322.9" r="5"/>
      <circle cx="275.9" cy="316.7" r="5"/>
      <circle cx="220.7" cy="275.4" r="5"/>
      <circle cx="240.7" cy="342.8" r="5"/>
      <circle cx="154.2" cy="390.8" r="5"/>
      <circle cx="195.1" cy="351" r="5"/>
      <circle cx="281.5" cy="348.4" r="5"/>
      <circle cx="377.5" cy="318.3" r="5"/>
      <circle cx="259.1" cy="321.9" r="5"/>
      <circle cx="255.1" cy="311.6" r="5"/>
      <circle cx="251.1" cy="320.3" r="5"/>
      <circle cx="183" cy="359.1" r="5"/>
      <circle cx="215.1" cy="248.8" r="5"/>
      <circle cx="239.1" cy="311.6" r="5"/>
      <circle cx="260.7" cy="255" r="5"/>
      <circle cx="223.1" cy="219.7" r="5"/>
      <circle cx="231.1" cy="348.9" r="5"/>
      <circle cx="263.1" cy="356.6" r="5"/>
      <circle cx="327.1" cy="241.7" r="5"/>
      <circle cx="316.7" cy="316.2" r="5"/>
      <circle cx="275.9" cy="343.8" r="5"/>
      <circle cx="143.8" cy="379.6" r="5"/>
      <circle cx="251.1" cy="361.2" r="5"/>
      <circle cx="243.1" cy="372.9" r="5"/>
      <circle cx="151" cy="325.4" r="5"/>
      <circle cx="287.1" cy="309.1" r="5"/>
      <circle cx="247.1" cy="343.8" r="5"/>
      <circle cx="224.7" cy="348.4" r="5"/>
      <circle cx="175" cy="393.9" r="5"/>
      <circle cx="295.1" cy="267.7" r="5"/>
      <circle cx="344.7" cy="285.1" r="5"/>
      <circle cx="295.1" cy="273.8" r="5"/>
      <circle cx="235.1" cy="331" r="5"/>
      <circle cx="297.5" cy="297.3" r="5"/>
      <circle cx="247.9" cy="262.6" r="5"/>
      <circle cx="291.1" cy="358.6" r="5"/>
      <circle cx="240.7" cy="322.9" r="5"/>
      <circle cx="171" cy="378" r="5"/>
      <circle cx="213.5" cy="372.9" r="5"/>
      <circle cx="320.7" cy="274.9" r="5"/>
      <circle cx="295.1" cy="342.8" r="5"/>
      <circle cx="226.3" cy="304.5" r="5"/>
      <circle cx="287.1" cy="331" r="5"/>
      <circle cx="264.7" cy="329" r="5"/>
      <circle cx="210.3" cy="394.9" r="5"/>
      <circle cx="235.1" cy="361.7" r="5"/>
      <circle cx="207.1" cy="380.1" r="5"/>
      <circle cx="237.5" cy="333.1" r="5"/>
      <circle cx="207.1" cy="344.3" r="5"/>
      <circle cx="373.5" cy="287.1" r="5"/>
      <circle cx="238.3" cy="324.9" r="5"/>
      <circle cx="223.1" cy="354.5" r="5"/>
      <circle cx="143.8" cy="254.4" r="5"/>
      <circle cx="280.7" cy="355.6" r="5"/>
      <circle cx="286.3" cy="275.9" r="5"/>
      <circle cx="320.7" cy="330" r="5"/>
      <circle cx="309.5" cy="341.3" r="5"/>
      <circle cx="359.1" cy="267.7" r="5"/>
      <circle cx="249.5" cy="322.9" r="5"/>
      <circle cx="239.1" cy="260.6" r="5"/>
      <circle cx="283.1" cy="295.3" r="5"/>
      <circle cx="269.5" cy="339.2" r="5"/>
      <circle cx="316.7" cy="91" r="5"/>
      <circle cx="243.1" cy="363.7" r="5"/>
      <circle cx="290.3" cy="304.5" r="5"/>
      <circle cx="277.5" cy="327" r="5"/>
      <circle cx="211.1" cy="385.2" r="5"/>
      <circle cx="275.9" cy="306.5" r="5"/>
      <circle cx="224.7" cy="346.4" r="5"/>
      <circle cx="215.1" cy="398.5" r="5"/>
      <circle cx="240.7" cy="352.5" r="5"/>
      <circle cx="232.7" cy="371.9" r="5"/>
      <circle cx="225.5" cy="320.8" r="5"/>
      <circle cx="131" cy="399.5" r="5"/>
      <circle cx="195.1" cy="328" r="5"/>
      <circle cx="240.7" cy="340.2" r="5"/>
      <circle cx="316.7" cy="311.6" r="5"/>
      <circle cx="175" cy="377" r="5"/>
      <circle cx="187" cy="285.1" r="5"/>
      <circle cx="247.1" cy="353.5" r="5"/>
      <circle cx="222.3" cy="350.5" r="5"/>
      <circle cx="237.5" cy="332.1" r="5"/>
      <circle cx="271.1" cy="322.9" r="5"/>
      <circle cx="215.1" cy="348.4" r="5"/>
      <circle cx="215.1" cy="407.7" r="5"/>
      <circle cx="286.3" cy="319.3" r="5"/>
      <circle cx="200.7" cy="391.3" r="5"/>
      <circle cx="183" cy="299.4" r="5"/>
      <circle cx="215.1" cy="379.1" r="5"/>
      <circle cx="271.9" cy="310.6" r="5"/>
      <circle cx="199.1" cy="344.8" r="5"/>
      <circle cx="275.9" cy="333.1" r="5"/>
      <circle cx="183" cy="349.4" r="5"/>
      <circle cx="231.9" cy="325.9" r="5"/>
      <circle cx="322.3" cy="359.1" r="5"/>
      <circle cx="213.5" cy="356.6" r="5"/>
      <circle cx="299.1" cy="298.9" r="5"/>
      <circle cx="208.7" cy="363.7" r="5"/>
      <circle cx="195.1" cy="342.3" r="5"/>
      <circle cx="225.5" cy="303.5" r="5"/>
      <circle cx="235.9" cy="305.5" r="5"/>
      <circle cx="215.1" cy="324.4" r="5"/>
      <circle cx="286.3" cy="338.2" r="5"/>
      <circle cx="255.9" cy="300.9" r="5"/>
      <circle cx="235.9" cy="372.9" r="5"/>
      <circle cx="255.9" cy="259" r="5"/>
      <circle cx="266.3" cy="347.4" r="5"/>
      <circle cx="215.1" cy="342.8" r="5"/>
      <circle cx="154.2" cy="319.8" r="5"/>
      <circle cx="296.7" cy="275.4" r="5"/>
      <circle cx="235.9" cy="196.7" r="5"/>
      <circle cx="296.7" cy="342.8" r="5"/>
      <circle cx="205.5" cy="344.8" r="5"/>
      <circle cx="316.7" cy="273.3" r="5"/>
      <circle cx="275.9" cy="238.1" r="5"/>
      <circle cx="235.9" cy="314.7" r="5"/>
      <circle cx="275.9" cy="291.7" r="5"/>
      <circle cx="184.6" cy="329" r="5"/>
      <circle cx="336.7" cy="287.1" r="5"/>
      <circle cx="311.9" cy="339.2" r="5"/>
      <circle cx="235.9" cy="329" r="5"/>
      <circle cx="215.1" cy="342.8" r="5"/>
      <circle cx="255.9" cy="326.5" r="5"/>
      <circle cx="398.3" cy="210.5" r="5"/>
      <circle cx="266.3" cy="267.2" r="5"/>
      <circle cx="255.9" cy="338.2" r="5"/>
      <circle cx="357.5" cy="321.9" r="5"/>
      <circle cx="255.9" cy="331" r="5"/>
      <circle cx="337.5" cy="257" r="5"/>
      <circle cx="174.2" cy="352" r="5"/>
      <circle cx="205.5" cy="377.5" r="5"/>
      <circle cx="316.7" cy="240.7" r="5"/>
      <circle cx="286.3" cy="347.4" r="5"/>
      <circle cx="225.5" cy="335.6" r="5"/>
      <circle cx="275.9" cy="347.4" r="5"/>
      <circle cx="255.9" cy="293.8" r="5"/>
      <circle cx="337.5" cy="293.8" r="5"/>
      <circle cx="195.1" cy="380.1" r="5"/>
      <circle cx="245.5" cy="329" r="5"/>
      <circle cx="275.9" cy="303.5" r="5"/>
      <circle cx="255.9" cy="346.4" r="5"/>
      <circle cx="255.9" cy="308.1" r="5"/>
      <circle cx="286.3" cy="339.2" r="5"/>
      <circle cx="235.9" cy="353" r="5"/>
      <circle cx="251.1" cy="305.5" r="5"/>
      <circle cx="347.1" cy="252.4" r="5"/>
      <circle cx="286.3" cy="311.6" r="5"/>
      <circle cx="337.5" cy="303.5" r="5"/>
      <circle cx="210.3" cy="356.6" r="5"/>
      <circle cx="215.1" cy="355.6" r="5"/>
      <circle cx="296.7" cy="347.4" r="5"/>
      <circle cx="235.9" cy="268.2" r="5"/>
      <circle cx="275.9" cy="349.9" r="5"/>
      <circle cx="235.9" cy="349.9" r="5"/>
      <circle cx="220.7" cy="342.8" r="5"/>
      <circle cx="215.1" cy="327" r="5"/>
      <circle cx="195.1" cy="303.5" r="5"/>
      <circle cx="235.9" cy="349.9" r="5"/>
      <circle cx="154.2" cy="386.7" r="5"/>
      <circle cx="296.7" cy="282.5" r="5"/>
      <circle cx="255.9" cy="215.1" r="5"/>
      <circle cx="316.7" cy="268.2" r="5"/>
      <circle cx="255.9" cy="317.3" r="5"/>
      <circle cx="296.7" cy="303.5" r="5"/>
      <circle cx="296.7" cy="349.9" r="5"/>
      <circle cx="296.7" cy="326.5" r="5"/>
      <circle cx="225.5" cy="268.2" r="5"/>
      <circle cx="275.9" cy="359.1" r="5"/>
      <circle cx="275.9" cy="308.1" r="5"/>
      <circle cx="255.9" cy="187.5" r="5"/>
      <circle cx="235.9" cy="289.2" r="5"/>
      <circle cx="154.2" cy="284.6" r="5"/>
      <circle cx="286.3" cy="306.5" r="5"/>
      <circle cx="296.7" cy="252.4" r="5"/>
      <circle cx="336.7" cy="310.1" r="5"/>
      <circle cx="336.7" cy="333.6" r="5"/>
      <circle cx="215.1" cy="345.3" r="5"/>
      <circle cx="255.9" cy="96.6" r="5"/>
      <circle cx="327.1" cy="344.8" r="5"/>
      <circle cx="296.7" cy="233.5" r="5"/>
      <circle cx="215.1" cy="217.2" r="5"/>
      <circle cx="275.9" cy="298.9" r="5"/>
      <circle cx="275.9" cy="259" r="5"/>
      <circle cx="275.9" cy="314.7" r="5"/>
      <circle cx="174.2" cy="331" r="5"/>
      <circle cx="235.9" cy="210.5" r="5"/>
      <circle cx="337.5" cy="303.5" r="5"/>
      <circle cx="306.3" cy="355.6" r="5"/>
      <circle cx="195.1" cy="349.9" r="5"/>
      <circle cx="255.9" cy="354.5" r="5"/>
      <circle cx="215.1" cy="321.9" r="5"/>
      <circle cx="327.1" cy="252.4" r="5"/>
      <circle cx="235.9" cy="314.7" r="5"/>
      <circle cx="327.1" cy="344.8" r="5"/>
      <circle cx="235.9" cy="303.5" r="5"/>
      <circle cx="225.5" cy="317.3" r="5"/>
      <circle cx="184.6" cy="321.9" r="5"/>
      <circle cx="134.2" cy="389.3" r="5"/>
      <circle cx="291.1" cy="335.6" r="5"/>
      <circle cx="215.1" cy="300.9" r="5"/>
      <circle cx="337.5" cy="303.5" r="5"/>
      <circle cx="291.1" cy="284.6" r="5"/>
      <circle cx="215.1" cy="242.7" r="5"/>
      <circle cx="316.7" cy="280" r="5"/>
      <circle cx="235.9" cy="314.7" r="5"/>
      <circle cx="195.1" cy="236.1" r="5"/>
      <circle cx="347.1" cy="261.6" r="5"/>
      <circle cx="250.3" cy="344.8" r="5"/>
      <circle cx="220.7" cy="380.1" r="5"/>
      <circle cx="327.1" cy="289.2" r="5"/>
      <circle cx="245.5" cy="284.6" r="5"/>
    </g>
  </g>
  <clipPath id="c">
    <path d="M-1-1h482.2v410.6H-1z"/>
  </clipPath>
  <g class="wj-chart-annotationlayer" clip-path="url(#c)" transform="translate(55 15.429)">
    <g class="gcchart-annotation gcchart-anno-shape gcchart-anno-polygon">
      <path stroke="#000" fill="red" class="anno-shape" opacity=".1" d="M56 76.6h288.1v321.8H56z"/>
    </g>
    <g class="gcchart-annotation gcchart-anno-shape gcchart-anno-polygon">
      <path stroke="#000" fill="green" class="anno-shape" opacity=".1" d="M136 15.3h336.2v321.8H136z"/>
    </g>
  </g>
</svg>
