<svg xmlns="http://www.w3.org/2000/svg" viewBox="0 0 1152 800" width="1152" height="800" style="position:relative">
  <g transform="translate(576 400)">
    <path d="M0-20s1.141-.203 1.723-.267a20 20 0 0 1 3.568-.076 21 21 0 0 1 3.639.566 21.6 21.6 0 0 1 3.591 1.228 22.3 22.3 0 0 1 3.422 1.889 23 23 0 0 1 3.13 2.526 23.6 23.6 0 0 1 2.72 3.116A24.3 24.3 0 0 1 23.99-7.38a25 25 0 0 1 1.576 4.069 25.7 25.7 0 0 1 .872 4.391 26.4 26.4 0 0 1 .103 4.59 27 27 0 0 1-.707 4.652 28 28 0 0 1-1.534 4.57 28.4 28.4 0 0 1-2.351 4.336 29 29 0 0 1-3.133 3.958 30 30 0 0 1-3.852 3.437 30.5 30.5 0 0 1-4.48 2.784 31 31 0 0 1-5 2.018A32 32 0 0 1 .103 32.58a32.6 32.6 0 0 1-5.614.22 33 33 0 0 1-5.683-.76 34 34 0 0 1-5.579-1.755 34.6 34.6 0 0 1-5.297-2.736 35.3 35.3 0 0 1-4.843-3.67 36 36 0 0 1-4.223-4.528 36.7 36.7 0 0 1-3.45-5.279 37.4 37.4 0 0 1-2.543-5.895 38 38 0 0 1-1.527-6.354 38.7 38.7 0 0 1-.428-6.636 39.4 39.4 0 0 1 .723-6.725 40 40 0 0 1 1.89-6.615 41 41 0 0 1 3.04-6.298 41.5 41.5 0 0 1 4.134-5.782 42 42 0 0 1 5.141-5.074 43 43 0 0 1 6.024-4.19 43.5 43.5 0 0 1 6.753-3.15 44 44 0 0 1 7.302-1.987 45 45 0 0 1 7.648-.726 45.6 45.6 0 0 1 7.774.595 46 46 0 0 1 7.67 1.936 47 47 0 0 1 7.336 3.26 47.6 47.6 0 0 1 6.77 4.522 48.3 48.3 0 0 1 5.985 5.686 49 49 0 0 1 5 6.713 49.7 49.7 0 0 1 3.84 7.568 50.3 50.3 0 0 1 2.53 8.22 51 51 0 0 1 1.114 8.644 51.7 51.7 0 0 1-.376 8.822 52.4 52.4 0 0 1-1.892 8.742 53 53 0 0 1-3.393 8.401 54 54 0 0 1-4.83 7.8 54.4 54.4 0 0 1-6.16 6.955 55 55 0 0 1-7.341 5.879 56 56 0 0 1-8.332 4.604 56.5 56.5 0 0 1-9.102 3.16 57 57 0 0 1-9.619 1.59 58 58 0 0 1-9.864-.065 58.5 58.5 0 0 1-9.824-1.758 59 59 0 0 1-9.49-3.438 60 60 0 0 1-8.871-5.055 60.6 60.6 0 0 1-7.974-6.558 61 61 0 0 1-6.821-7.902 62 62 0 0 1-5.442-9.043 62.6 62.6 0 0 1-3.873-9.942 63.3 63.3 0 0 1-2.154-10.567 64 64 0 0 1-.335-10.894 64.7 64.7 0 0 1 1.531-10.907 65.4 65.4 0 0 1 3.393-10.6 66 66 0 0 1 5.193-9.973 66.7 66.7 0 0 1 6.877-9.041 67.4 67.4 0 0 1 8.394-7.823 68 68 0 0 1 9.694-6.352 69 69 0 0 1 10.736-4.663 69.5 69.5 0 0 1 11.481-2.804 70 70 0 0 1 11.906-.828 71 71 0 0 1 11.989 1.213 71.5 71.5 0 0 1 11.72 3.256 72 72 0 0 1 11.104 5.244 73 73 0 0 1 10.15 7.114 73.5 73.5 0 0 1 8.88 8.81 74 74 0 0 1 7.327 10.282 75 75 0 0 1 5.53 11.476 75.6 75.6 0 0 1 3.54 12.358A76 76 0 0 1 76.75 2.171a77 77 0 0 1-.801 13.06 77.6 77.6 0 0 1-3.027 12.848 78.3 78.3 0 0 1-5.204 12.257 79 79 0 0 1-7.265 11.295 79.7 79.7 0 0 1-9.15 9.988 80.4 80.4 0 0 1-10.799 8.365 81 81 0 0 1-12.16 6.472 81.7 81.7 0 0 1-13.19 4.356 82.4 82.4 0 0 1-13.85 2.078 83 83 0 0 1-14.118-.298 84 84 0 0 1-13.977-2.705 84.5 84.5 0 0 1-13.425-5.071 85 85 0 0 1-12.472-7.328A86 86 0 0 1-63.83 58.08a86.5 86.5 0 0 1-9.463-11.244 87 87 0 0 1-7.482-12.783 88 88 0 0 1-5.252-13.972A88.5 88.5 0 0 1-88.861 5.31a89 89 0 0 1-.297-15.153 90 90 0 0 1 2.288-15.1 90.6 90.6 0 0 1 4.846-14.603 91 91 0 0 1 7.3-13.676 92 92 0 0 1 9.579-12.334A92.6 92.6 0 0 1-53.533-76.17a93.3 93.3 0 0 1 13.337-8.559 94 94 0 0 1 14.699-6.225 94.7 94.7 0 0 1 15.651-3.675 95.4 95.4 0 0 1 16.163-.983 96 96 0 0 1 16.21 1.778 96.7 96.7 0 0 1 15.787 4.526 97.4 97.4 0 0 1 14.898 7.18 98 98 0 0 1 13.563 9.663A99 99 0 0 1 78.59-60.566a99.4 99.4 0 0 1 9.698 13.82 100 100 0 0 1 7.271 15.365 101 101 0 0 1 4.6 16.484 101.5 101.5 0 0 1 1.756 17.139 102 102 0 0 1-1.174 17.304 103 103 0 0 1-4.11 16.968 103.5 103.5 0 0 1-6.965 16.135 104 104 0 0 1-9.656 14.82 105 105 0 0 1-12.102 13.06 105.6 105.6 0 0 1-14.226 10.896 106 106 0 0 1-15.966 8.387 107 107 0 0 1-17.264 5.602 107.6 107.6 0 0 1-18.076 2.62 108.3 108.3 0 0 1-18.374-.477 109 109 0 0 1-18.141-3.6 109.7 109.7 0 0 1-17.38-6.654 110.4 110.4 0 0 1-16.104-9.557A111 111 0 0 1-81.966 75.53a111.7 111.7 0 0 1-12.146-14.553 112.4 112.4 0 0 1-9.57-16.496 113 113 0 0 1-6.682-17.985 114 114 0 0 1-3.568-18.969 114.4 114.4 0 0 1-.311-19.414 115 115 0 0 1 2.992-19.3 116 116 0 0 1 6.248-18.627 116.5 116.5 0 0 1 9.361-17.404 117 117 0 0 1 12.24-15.662 118 118 0 0 1 14.795-13.445 118.5 118.5 0 0 1 16.953-10.813 119 119 0 0 1 18.642-7.837 120 120 0 0 1 19.811-4.599 120.6 120.6 0 0 1 20.418-1.19 121 121 0 0 1 20.44 2.29 122 122 0 0 1 19.87 5.743 122.6 122.6 0 0 1 18.716 9.07 123.3 123.3 0 0 1 17.009 12.169 124 124 0 0 1 14.788 14.95 124.7 124.7 0 0 1 12.114 17.33 125.3 125.3 0 0 1 12.35 29.394 126.4 126.4 0 0 1 4.58 31.814 127.4 127.4 0 0 1-3.612 32.2 128.4 128.4 0 0 1-11.701 30.491 129.4 129.4 0 0 1-19.158 26.77 130.5 130.5 0 0 1-25.483 21.245 131.5 131.5 0 0 1-30.247 14.249 132.5 132.5 0 0 1-33.117 6.216 133.5 133.5 0 0 1-33.872-2.347 134.5 134.5 0 0 1-32.434-10.887 135.6 135.6 0 0 1-28.86-18.848 136.6 136.6 0 0 1-23.355-25.704 137.6 137.6 0 0 1-16.247-30.988 138.6 138.6 0 0 1-7.973-34.334 139.6 139.6 0 0 1 .94-35.493 140.7 140.7 0 0 1 9.923-34.36A141.7 141.7 0 0 1-109.72-90.77a142.7 142.7 0 0 1 25.786-25.524 143.7 143.7 0 0 1 31.608-18.335 144.8 144.8 0 0 1 35.457-9.85 145.8 145.8 0 0 1 37.054-.605 146.8 146.8 0 0 1 36.262 8.81 147.8 147.8 0 0 1 33.101 17.785 148.8 148.8 0 0 1 27.744 25.724A150 150 0 0 1 137.8-60.663a151 151 0 0 1 11.84 36.48 152 152 0 0 1 2.284 38.543 153 153 0 0 1-7.55 38.13 154 154 0 0 1-17.022 35.231 155 155 0 0 1-25.516 30.005 156 156 0 0 1-32.464 22.759 157 157 0 0 1-37.391 13.937 158 158 0 0 1-39.955 4.097 159 159 0 0 1-39.953-6.14 160 160 0 0 1-37.357-16.107 161 161 0 0 1-32.299-25.157 162 162 0 0 1-25.079-32.687A163 163 0 0 1-158.8 40.242a164.2 164.2 0 0 1-6.037-41.278 165.2 165.2 0 0 1 4.584-41.724 166.2 166.2 0 0 1 15.037-39.466 167.2 167.2 0 0 1 24.643-34.618 168.3 168.3 0 0 1 32.765-27.46 169.3 169.3 0 0 1 38.86-18.434 170.3 170.3 0 0 1 42.504-8.1 171.3 171.3 0 0 1 43.433 2.883 172.3 172.3 0 0 1 41.551 13.81 173.4 173.4 0 0 1 36.951 23.973 174.4 174.4 0 0 1 29.897 32.696 175.4 175.4 0 0 1 20.818 39.402 176.4 176.4 0 0 1 10.284 43.626 177.4 177.4 0 0 1-1.042 45.069 178.5 178.5 0 0 1-12.43 43.602 179.5 179.5 0 0 1-23.142 39.29 180.5 180.5 0 0 1-32.474 32.377 181.5 181.5 0 0 1-39.805 23.285 182.6 182.6 0 0 1-44.636 12.58 183.6 183.6 0 0 1-46.624.939 184.6 184.6 0 0 1-45.61-10.894 185.6 185.6 0 0 1-41.623-22.151 186.6 186.6 0 0 1-34.894-32.095 187.7 187.7 0 0 1-25.827-40.066 188.7 188.7 0 0 1-14.985-45.524 189.7 189.7 0 0 1-3.054-48.09 190.7 190.7 0 0 1 9.205-47.562 191.8 191.8 0 0 1 20.998-43.945 192.8 192.8 0 0 1 31.555-37.438 193.8 193.8 0 0 1 40.178-28.435 194.8 194.8 0 0 1 46.285-17.491 195.8 195.8 0 0 1 49.456-5.3 197 197 0 0 1 49.453 7.366 198 198 0 0 1 46.242 19.682 199 199 0 0 1 40 30.851 200 200 0 0 1 31.1 40.135 201 201 0 0 1 20.093 46.911 202 202 0 0 1 7.67 50.716 203 203 0 0 1-5.375 51.27 204 204 0 0 1-18.205 48.505 205 205 0 0 1-29.981 42.57 206 206 0 0 1-39.933 33.816 207 207 0 0 1-47.395 22.781 208 208 0 0 1-51.86 10.162 209 209 0 0 1-53.005-3.24A210 210 0 0 1-93.9 188.664a211.2 211.2 0 0 1-45.139-28.944 212.2 212.2 0 0 1-36.57-39.568 213.2 213.2 0 0 1-25.551-47.73 214.2 214.2 0 0 1-12.77-52.878 215.2 215.2 0 0 1 .964-54.648 216.3 216.3 0 0 1 14.762-52.893 217.3 217.3 0 0 1 27.737-47.696 218.3 218.3 0 0 1 39.035-39.358 219.3 219.3 0 0 1 47.911-28.392 220.4 220.4 0 0 1 53.765-15.484 221.4 221.4 0 0 1 56.19-1.453 222.4 222.4 0 0 1 54.999 12.802 223.4 223.4 0 0 1 50.23 26.358 224.4 224.4 0 0 1 42.168 38.332 225.5 225.5 0 0 1 31.297 47.932 226.5 226.5 0 0 1 18.301 54.513 227.5 227.5 0 0 1 4.003 57.624 228.5 228.5 0 0 1-10.684 57.028 229.5 229.5 0 0 1-24.81 52.736 230.6 230.6 0 0 1-37.455 44.987 231.6 231.6 0 0 1-47.787 34.258 232.6 232.6 0 0 1-55.115 21.213 233.6 233.6 0 0 1-58.937 6.681 234.7 234.7 0 0 1-58.978-8.411 235.7 235.7 0 0 1-55.197-23.09 236.7 236.7 0 0 1-47.81-36.403 237.7 237.7 0 0 1-37.265-47.472 238.7 238.7 0 0 1-24.213-55.563A239.8 239.8 0 0 1-240.3 3.02a240.8 240.8 0 0 1 5.988-60.833 241.8 241.8 0 0 1 21.202-57.608 242.8 242.8 0 0 1 35.172-50.626 244 244 0 0 1 46.983-40.307 245 245 0 0 1 55.85-27.291 246 246 0 0 1 61.178-12.401 247 247 0 0 1 62.586 3.417 248 248 0 0 1 59.957 19.145 249 249 0 0 1 53.422 33.763 250 250 0 0 1 43.377 46.315 251 251 0 0 1 30.442 55.973 252 252 0 0 1 17.013 83.46 253.4 253.4 0 0 1-11.805 84.82 254.7 254.7 0 0 1-39.578 76.458 256.1 256.1 0 0 1-63.108 59.237 257.5 257.5 0 0 1-79.65 35.034 258.8 258.8 0 0 1-87.226 6.556 260.2 260.2 0 0 1-84.877-22.976 261.6 261.6 0 0 1-72.766-50.18 262.9 262.9 0 0 1-52.18-71.915 264.3 264.3 0 0 1-25.395-85.622 265.6 265.6 0 0 1 4.58-89.652 267 267 0 0 1 34.337-83.439 268.4 268.4 0 0 1 60.461-67.59 269.7 269.7 0 0 1 79.916-43.83A271.1 271.1 0 0 1 5.98-271.875a272.5 272.5 0 0 1 90.625 16.217 273.8 273.8 0 0 1 80.457 45.687 275.2 275.2 0 0 1 60.96 70.211 276.5 276.5 0 0 1 34.28 86.927 277.9 277.9 0 0 1 3.405 93.84 279.3 279.3 0 0 1-28.164 90.06 280.6 280.6 0 0 1-56.813 75.914 282 282 0 0 1-79.225 52.929 283.3 283.3 0 0 1-92.77 23.65 284.7 284.7 0 0 1-95.81-8.62 286 286 0 0 1-87.894-40.214 287.4 287.4 0 0 1-37.74-30.74 288 288 0 0 1-32.085-36.757 289 289 0 0 1-25.476-41.747 289.5 289.5 0 0 1-18.103-45.556 290 290 0 0 1-10.174-48.071 291 291 0 0 1-1.915-49.214 291.5 291.5 0 0 1 6.438-48.945 292 292 0 0 1 14.645-47.265 293 293 0 0 1 22.469-44.216 293.6 293.6 0 0 1 29.68-39.88 294 294 0 0 1 36.073-34.374 295 295 0 0 1 41.454-27.853 295.6 295.6 0 0 1 45.668-20.5 296.3 296.3 0 0 1 48.585-12.524 297 297 0 0 1 50.117-4.148 297.6 297.6 0 0 1 50.212 4.384 298.3 298.3 0 0 1 48.863 12.829 299 299 0 0 1 46.1 20.944 299.7 299.7 0 0 1 41.995 28.492 300.4 300.4 0 0 1 36.665 35.255 301 301 0 0 1 30.253 41.032 302 302 0 0 1 22.942 45.655 302.4 302.4 0 0 1 14.937 48.983 303 303 0 0 1 6.465 50.917 304 304 0 0 1-2.23 51.392 304.5 304.5 0 0 1-10.902 50.39 305 305 0 0 1-19.297 47.932 306 306 0 0 1-27.173 44.084 306.5 306.5 0 0 1-34.304 38.949 307 307 0 0 1-40.478 32.669 308 308 0 0 1-45.514 25.42 308.5 308.5 0 0 1-49.261 17.409 309 309 0 0 1-51.608 8.86 310 310 0 0 1-52.477.018 310.6 310.6 0 0 1-51.84-8.863 311 311 0 0 1-49.708-17.528 312 312 0 0 1-46.135-25.726 312.6 312.6 0 0 1-41.219-33.22 313.3 313.3 0 0 1-35.093-39.788 314 314 0 0 1-27.93-45.241 314.7 314.7 0 0 1-19.934-49.415 315.4 315.4 0 0 1-11.327-52.184 316 316 0 0 1-2.358-53.462 316.7 316.7 0 0 1 6.718-53.207 317.4 317.4 0 0 1 15.64-51.419 318 318 0 0 1 24.148-48.143 319 319 0 0 1 32-43.466 319.4 319.4 0 0 1 38.964-37.518 320 320 0 0 1 44.834-30.465 321 321 0 0 1 49.44-22.505 321.5 321.5 0 0 1 52.641-13.862 322 322 0 0 1 54.341-4.785 323 323 0 0 1 54.484 4.47 323.5 323.5 0 0 1 53.057 13.634 324 324 0 0 1 50.1 22.445 325 325 0 0 1 45.684 30.646 325.6 325.6 0 0 1 39.938 38 326 326 0 0 1 33.016 44.29 327 327 0 0 1 25.116 49.333 327.6 327.6 0 0 1 16.46 52.975 328.3 328.3 0 0 1 7.292 55.107 329 329 0 0 1-2.122 55.663 329.7 329.7 0 0 1-11.514 54.618 330.3 330.3 0 0 1-20.614 51.997 331 331 0 0 1-29.158 47.867 331.7 331.7 0 0 1-36.898 42.344 332.4 332.4 0 0 1-43.608 35.577 333 333 0 0 1-49.089 27.76 334 334 0 0 1-53.18 19.112 334.4 334.4 0 0 1-55.756 9.877 335 335 0 0 1-56.74.32 336 336 0 0 1-56.092-9.282 336.5 336.5 0 0 1-53.828-18.66 337 337 0 0 1-50.006-27.536 338 338 0 0 1-44.728-35.656 338.5 338.5 0 0 1-38.141-42.783 339 339 0 0 1-30.431-48.707 340 340 0 0 1-21.813-53.252 340.6 340.6 0 0 1-12.533-56.284 341 341 0 0 1-2.854-57.706 342 342 0 0 1 6.944-57.475 342.6 342.6 0 0 1 16.583-55.587 343 343 0 0 1 25.781-52.091 344 344 0 0 1 34.276-47.084 344.6 344.6 0 0 1 41.816-40.7 345.3 345.3 0 0 1 48.183-33.12 346 346 0 0 1 53.188-24.558 346.7 346.7 0 0 1 56.683-15.253 347.4 347.4 0 0 1 58.558-5.473 348 348 0 0 1 58.758 4.501 348.7 348.7 0 0 1 57.264 14.387 349.4 349.4 0 0 1 54.12 23.896 350 350 0 0 1 49.402 32.755 351 351 0 0 1 43.247 40.705 351.4 351.4 0 0 1 35.821 47.516 352 352 0 0 1 27.337 52.984 353 353 0 0 1 18.032 56.949 353.5 353.5 0 0 1 8.173 59.29 354 354 0 0 1-1.96 59.934 355 355 0 0 1-12.074 58.856 355.5 355.5 0 0 1-21.881 56.079 356 356 0 0 1-31.096 51.677 357 357 0 0 1-39.45 45.773 357.6 357.6 0 0 1-46.702 38.527 358 358 0 0 1-52.636 30.145 359 359 0 0 1-57.08 20.864 359.6 359.6 0 0 1-59.895 10.947C20.36 359.34 0 360 0 360" style="fill:none;stroke:#4682b4"/>
    <circle cy="-20" r="7.036" style="fill:#66c1b0;stroke:none"/>
    <circle cx="-34.737" cy="-22.075" r="2.149" style="fill:#66c1b0;stroke:none"/>
    <circle cx="37.756" cy="39.616" r="2.739" style="fill:#66c1b0;stroke:none"/>
    <circle cx="-61.128" cy="-23.684" r="1.625" style="fill:#66c1b0;stroke:none"/>
    <circle cx="67.197" cy="-32.946" r="3.621" style="fill:#66c1b0;stroke:none"/>
    <circle cx="-2.738" cy="83.05" r="8.132" style="fill:#66c1b0;stroke:none"/>
    <circle cx="-85.559" cy="-29.809" r="1.304" style="fill:#66c1b0;stroke:none"/>
    <circle cx="46.251" cy="-85.872" r="6.666" style="fill:#66c1b0;stroke:none"/>
    <circle cx="89.316" cy="53.296" r="7.301" style="fill:#66c1b0;stroke:none"/>
    <circle cx="-51.556" cy="97.285" r="3.795" style="fill:#66c1b0;stroke:none"/>
    <circle cx="-108.572" cy="-40.485" r="7.664" style="fill:#66c1b0;stroke:none"/>
    <circle cx="19.116" cy="-119.86" r="1.197" style="fill:#66c1b0;stroke:none"/>
    <circle cx="126.002" cy="-12.653" r="3.125" style="fill:#66c1b0;stroke:none"/>
    <circle cx="52.572" cy="120.738" r="7.564" style="fill:#66c1b0;stroke:none"/>
    <circle cx="-98.242" cy="94.842" r="4.743" style="fill:#66c1b0;stroke:none"/>
    <circle cx="-129.87" cy="-55.544" r="9.994" style="fill:#66c1b0;stroke:none"/>
    <circle cx="-4.727" cy="-145.719" r="7.607" style="fill:#66c1b0;stroke:none"/>
    <circle cx="131.579" cy="-72.446" r="5.975" style="fill:#66c1b0;stroke:none"/>
    <circle cx="130.456" cy="82.752" r="4.572" style="fill:#66c1b0;stroke:none"/>
    <circle cx="-5.431" cy="158.563" r="6.636" style="fill:#66c1b0;stroke:none"/>
    <circle cx="-140.932" cy="81.331" r="10" style="fill:#66c1b0;stroke:none"/>
    <circle cx="-148.975" cy="-74.755" r="4.963" style="fill:#66c1b0;stroke:none"/>
    <circle cx="-23.829" cy="-168.876" r="7.32" style="fill:#66c1b0;stroke:none"/>
    <circle cx="125.538" cy="-120.965" r="9.261" style="fill:#66c1b0;stroke:none"/>
    <circle cx="175.842" cy="27.876" r="3.472" style="fill:#66c1b0;stroke:none"/>
    <circle cx="88.421" cy="158.695" r="8.854" style="fill:#66c1b0;stroke:none"/>
    <circle cx="-68.564" cy="172.066" r="6.945" style="fill:#66c1b0;stroke:none"/>
    <circle cx="-179.086" cy="59.508" r="9.181" style="fill:#66c1b0;stroke:none"/>
    <circle cx="-165.372" cy="-97.827" r=".932" style="fill:#66c1b0;stroke:none"/>
    <circle cx="-38.19" cy="-191.742" r=".137" style="fill:#66c1b0;stroke:none"/>
    <circle cx="117.004" cy="-160.744" r="1.486" style="fill:#66c1b0;stroke:none"/>
    <circle cx="200.386" cy="-26.061" r="5.659" style="fill:#66c1b0;stroke:none"/>
    <circle cx="160.892" cy="127.487" r="7.639" style="fill:#66c1b0;stroke:none"/>
    <circle cx="23.63" cy="207.089" r="9.715" style="fill:#66c1b0;stroke:none"/>
    <circle cx="-129.995" cy="166.886" r="1.147" style="fill:#66c1b0;stroke:none"/>
    <circle cx="-212.356" cy="30.981" r="9.548" style="fill:#66c1b0;stroke:none"/>
    <circle cx="-178.557" cy="-124.409" r="7.126" style="fill:#66c1b0;stroke:none"/>
    <circle cx="-47.962" cy="-215.326" r="5.362" style="fill:#66c1b0;stroke:none"/>
    <circle cx="109.915" cy="-194.653" r="2.767" style="fill:#66c1b0;stroke:none"/>
    <circle cx="213.998" cy="-74.035" r="7.9" style="fill:#66c1b0;stroke:none"/>
    <circle cx="212.824" cy="85.366" r="5.274" style="fill:#66c1b0;stroke:none"/>
    <circle cx="107.937" cy="205.515" r="4.927" style="fill:#66c1b0;stroke:none"/>
    <circle cx="-49.805" cy="229.59" r="6.019" style="fill:#66c1b0;stroke:none"/>
    <circle cx="-186.582" cy="147.257" r="6.603" style="fill:#66c1b0;stroke:none"/>
    <circle cx="-240.402" cy="-3.12" r="8.389" style="fill:#66c1b0;stroke:none"/>
    <circle cx="-188.054" cy="-154.09" r="3.309" style="fill:#66c1b0;stroke:none"/>
    <circle cx="-53.222" cy="-239.96" r="6.967" style="fill:#66c1b0;stroke:none"/>
    <circle cx="105.967" cy="-224.7" r="3.658" style="fill:#66c1b0;stroke:none"/>
    <circle cx="222.892" cy="-115.513" r="7.756" style="fill:#66c1b0;stroke:none"/>
    <circle cx="250.098" cy="42.195" r="7.57" style="fill:#66c1b0;stroke:none"/>
    <circle cx="177.403" cy="184.832" r="6.323" style="fill:#66c1b0;stroke:none"/>
    <circle cx="34.167" cy="256.462" r="6.057" style="fill:#66c1b0;stroke:none"/>
    <circle cx="-123.836" cy="230.022" r="2.613" style="fill:#66c1b0;stroke:none"/>
    <circle cx="-236.711" cy="116.27" r="4.323" style="fill:#66c1b0;stroke:none"/>
    <circle cx="-262.874" cy="-41.877" r="8.497" style="fill:#66c1b0;stroke:none"/>
    <circle cx="-193.43" cy="-186.403" r=".494" style="fill:#66c1b0;stroke:none"/>
    <circle cx="-53.97" cy="-265.621" r="4.503" style="fill:#66c1b0;stroke:none"/>
    <circle cx="105.893" cy="-252.109" r="9.833" style="fill:#66c1b0;stroke:none"/>
    <circle cx="230.679" cy="-151.211" r="6.309" style="fill:#66c1b0;stroke:none"/>
    <circle cx="278.17" cy="2.115" r="2.165" style="fill:#66c1b0;stroke:none"/>
    <circle cx="233.011" cy="156.188" r="8.81" style="fill:#66c1b0;stroke:none"/>
    <circle cx="110.71" cy="260.264" r="9.293" style="fill:#66c1b0;stroke:none"/>
    <circle cx="-48.577" cy="280.962" r="8.792" style="fill:#66c1b0;stroke:none"/>
    <circle cx="-193.801" cy="212.24" r="9.362" style="fill:#66c1b0;stroke:none"/>
    <circle cx="-279.451" cy="76.272" r=".318" style="fill:#66c1b0;stroke:none"/>
    <circle cx="-279.432" cy="-84.458" r="5.145" style="fill:#66c1b0;stroke:none"/>
    <circle cx="-194.304" cy="-220.832" r=".186" style="fill:#66c1b0;stroke:none"/>
    <circle cx="-50.158" cy="-292.08" r="7.047" style="fill:#66c1b0;stroke:none"/>
    <circle cx="110.007" cy="-277.543" r="2.609" style="fill:#66c1b0;stroke:none"/>
    <circle cx="239.405" cy="-181.995" r="9.942" style="fill:#66c1b0;stroke:none"/>
    <circle cx="301.045" cy="-33.389" r="2.876" style="fill:#66c1b0;stroke:none"/>
    <circle cx="277.87" cy="125.842" r="8.465" style="fill:#66c1b0;stroke:none"/>
    <circle cx="176.87" cy="251.138" r="4.837" style="fill:#66c1b0;stroke:none"/>
    <circle cx="26.348" cy="308.163" r=".208" style="fill:#66c1b0;stroke:none"/>
    <circle cx="-132.469" cy="281.809" r="9.476" style="fill:#66c1b0;stroke:none"/>
    <circle cx="-256.907" cy="179.633" r="4.995" style="fill:#66c1b0;stroke:none"/>
    <circle cx="-314.207" cy="29.135" r="9.611" style="fill:#66c1b0;stroke:none"/>
    <circle cx="-289.767" cy="-130.06" r="3.119" style="fill:#66c1b0;stroke:none"/>
    <circle cx="-190.356" cy="-256.808" r="8.156" style="fill:#66c1b0;stroke:none"/>
    <circle cx="-41.73" cy="-318.982" r="2.749" style="fill:#66c1b0;stroke:none"/>
    <circle cx="118.42" cy="-301.286" r="9.036" style="fill:#66c1b0;stroke:none"/>
    <circle cx="250.215" cy="-208.554" r="5.285" style="fill:#66c1b0;stroke:none"/>
    <circle cx="321.427" cy="-63.969" r="1.449" style="fill:#66c1b0;stroke:none"/>
    <circle cx="315.096" cy="97.095" r="3.976" style="fill:#66c1b0;stroke:none"/>
    <circle cx="233.149" cy="235.923" r="6.561" style="fill:#66c1b0;stroke:none"/>
    <circle cx="95.407" cy="319.72" r="9.7" style="fill:#66c1b0;stroke:none"/>
    <circle cx="-65.564" cy="329.136" r="9.089" style="fill:#66c1b0;stroke:none"/>
    <circle cx="-212.36" cy="262.37" r="5.329" style="fill:#66c1b0;stroke:none"/>
    <circle cx="-311.43" cy="135.098" r="8.474" style="fill:#66c1b0;stroke:none"/>
    <circle cx="-340.574" cy="-23.547" r="3.306" style="fill:#66c1b0;stroke:none"/>
    <circle cx="-293.615" cy="-177.879" r="9.335" style="fill:#66c1b0;stroke:none"/>
    <circle cx="-181.328" cy="-293.728" r="5.645" style="fill:#66c1b0;stroke:none"/>
    <circle cx="-28.642" cy="-345.892" r="3.88" style="fill:#66c1b0;stroke:none"/>
    <circle cx="131.145" cy="-323.369" r="2.419" style="fill:#66c1b0;stroke:none"/>
    <circle cx="263.725" cy="-231.348" r="4.802" style="fill:#66c1b0;stroke:none"/>
    <circle cx="341.076" cy="-89.693" r="9.755" style="fill:#66c1b0;stroke:none"/>
    <circle cx="347.212" cy="71.604" r=".188" style="fill:#66c1b0;stroke:none"/>
    <circle cx="281.186" cy="218.913" r="4.868" style="fill:#66c1b0;stroke:none"/>
    <circle cx="156.921" cy="321.978" r=".461" style="fill:#66c1b0;stroke:none"/>
    <circle cy="360" r="7.208" style="fill:#66c1b0;stroke:none"/>
  </g>
</svg>
